<svg viewBox="0 0 20 25" fill="none" xmlns="http://www.w3.org/2000/svg">
<path d="M5.91714 7H3C2.5 7 2 7.5 2 7.5C2 7.5 1.5 8 1.5 8.5C1.5 9 1 23.5 1 23.5C1 23.5 1 24.5 2 24.5H17H18C19 24.5 19 23.5 19 23.5C19 23.5 18.5 9 18.5 8.5C18.5 8 18 7.5 18 7.5C18 7.5 17.5 7 17 7H14M5.91714 7H6H14M5.91714 7C5.91714 7 6 4.5 6 4C6 3.5 7 2.5 7 2.5L8 1.5C8 1.5 8.5 1 9 1C9.5 1 11 1 11 1C11 1 11.5 1 12 1.5C12.5 2 13 2.5 13 2.5C13 2.5 14 3.5 14 4C14 4.5 14 5.82843 14 7" stroke-miterlimit="3.99393"/>
<path d="M5.6875 11C5.68299 10.9526 5.66264 10.9071 5.62792 10.8735C5.59323 10.84 5.54744 10.8211 5.5 10.8211C5.45256 10.8211 5.40677 10.84 5.37208 10.8735C5.33736 10.9071 5.31701 10.9526 5.3125 11C5.30825 11.2775 5.35323 11.4904 5.40666 11.7227C5.48342 12.0397 5.59045 12.3452 5.71427 12.6429C5.89394 13.073 6.11072 13.4899 6.37971 13.886C6.59288 14.1949 6.86846 14.433 7.14086 14.6293C7.95995 15.2222 8.9788 15.5518 10 15.5495C11.0212 15.5518 12.0401 15.2222 12.8591 14.6293C13.1315 14.433 13.4071 14.1949 13.6203 13.886C13.8893 13.4899 14.1061 13.073 14.2857 12.6429C14.4095 12.3452 14.5166 12.0397 14.5933 11.7227C14.6468 11.4904 14.6918 11.2775 14.6875 11C14.683 10.9526 14.6626 10.9071 14.6279 10.8735C14.5932 10.84 14.5474 10.8211 14.5 10.8211C14.4526 10.8211 14.4068 10.84 14.3721 10.8735C14.3374 10.9071 14.317 10.9526 14.3125 11C14.282 11.1629 14.2058 11.3804 14.1242 11.5688C14.0079 11.8381 13.8672 12.1005 13.7143 12.3571C13.493 12.7276 13.2477 13.081 12.9776 13.4C12.8174 13.5855 12.6056 13.7424 12.3649 13.888C11.6493 14.3225 10.8254 14.5502 10 14.5495C9.17458 14.5502 8.35069 14.3225 7.63507 13.888C7.39436 13.7424 7.18263 13.5855 7.02241 13.4C6.75234 13.081 6.50703 12.7276 6.28573 12.3571C6.13283 12.1005 5.99206 11.8381 5.87581 11.5688C5.79416 11.3804 5.71803 11.1629 5.6875 11Z" />
</svg>
