<svg xmlns="http://www.w3.org/2000/svg" viewBox="0 0 284.87 359.27">
      <path d="m70.72,80.74c-1.58-24.64,5.4-45.63,23.52-62.15C107.68,6.33,123.7.07,141.89,0c21.49-.08,39.62,7.97,54.03,23.9,14.45,15.97,19.65,35.15,18.22,56.83,4.7,0,9.02-.08,13.34.02,6.22.14,12.55-.26,18.64.76,15.9,2.67,27.87,15.84,28.85,31.89,1.5,24.65,2.51,49.32,3.69,73.99,1.68,35.13,3.33,70.26,4.98,105.4.46,9.72,1,19.44,1.22,29.16.49,21.08-15.2,37.25-36.35,37.28-70.73.08-141.46.08-212.19,0-21.26-.02-37.17-16.44-36.3-37.68,1.53-37.14,3.42-74.26,5.15-111.38,1.35-28.9,2.66-57.81,4.05-86.71.23-4.85.34-9.78,1.33-14.49,3.48-16.55,17.65-28,34.51-28.19,8.33-.1,16.67-.02,25.64-.02Zm71.52,254.55c35.18,0,70.36.01,105.54,0,8.6,0,13.4-5.03,13.11-13.63-.13-3.99-.27-7.98-.46-11.97-1.9-40.24-3.81-80.49-5.71-120.73-1.13-23.92-2.17-47.85-3.41-71.76-.46-8.9-5.18-13.04-13.95-13-18.09.09-36.18.17-54.26.22-45.41.12-90.81.22-136.22.33-8.17.02-12.76,4.19-13.27,12.43-.61,9.83-.93,19.68-1.39,29.53-2.72,57.94-5.46,115.87-8.17,173.81-.47,10.13,4.03,14.77,14.15,14.77,34.68,0,69.36,0,104.04,0Zm47.9-254.73c1.73-21.23-4.64-38.66-23.16-49.73-17.15-10.26-34.87-9.68-51.45,1.51-16.94,11.42-22.54,28.26-20.75,48.23h95.37Z"/>
      <path d="m142.58,209.17c-33.59-.02-62.31-22.66-70.16-55.25-1.27-5.27-.58-9.97,3.83-13.52,3.84-3.1,8.23-3.42,12.68-1.55,4.28,1.8,6.05,5.48,7.2,9.81,5.09,19.15,17.23,31.4,36.59,35.88,24.57,5.69,49.61-9.65,56.15-34.01.39-1.44.7-2.91,1.17-4.32,2.04-6.24,7.99-9.57,14.49-8.15,5.96,1.3,10.06,7.22,8.92,13.59-.7,3.89-1.88,7.75-3.3,11.45-10.7,28.02-37.29,46.09-67.56,46.08Z"/>
</svg>