<svg width="54" height="70" viewBox="0 0 54 70" fill="none" xmlns="http://www.w3.org/2000/svg">
<path d="M50.1707 14.872C53.5496 16.7257 53.2572 21.672 49.6833 23.1142L36.499 28.435C32.8724 29.8984 32.508 34.8888 35.8835 36.8636C38.0424 38.1265 38.3569 41.1213 36.5077 42.8054L9.44965 67.444C6.00474 70.5805 0.62536 67.1537 2.01176 62.7059L8.99086 40.3187C9.76252 37.8436 8.72445 35.1632 6.48663 33.8541L2.94299 31.7811C0.563349 30.389 -0.0508971 27.2222 1.63594 25.0416L19.2307 2.29677C20.6063 0.51857 23.0715 0.00498953 25.0426 1.08627L50.1707 14.872Z" fill="url(#paint0_linear_10_59)" stroke="black"/>
<defs>
<linearGradient id="paint0_linear_10_59" x1="53.9534" y1="16.164" x2="16.532" y2="-1.70836" gradientUnits="userSpaceOnUse">
<stop stop-color="#FF6432"/>
<stop offset="1" stop-color="#FFA228"/>
</linearGradient>
</defs>
</svg>
